HIERARCHY
ROOT Hips
{
  OFFSET 5.84602e-005 68.8428 3.50346
  CHANNELS 6 Xposition Yposition Zposition Zrotation Xrotation Yrotation
  JOINT Spine
  {
    OFFSET 0 8.597 -4.6522
    CHANNELS 3 Zrotation Xrotation Yrotation
    JOINT Spine1
    {
      OFFSET 0 7.8454 0.4098
      CHANNELS 3 Zrotation Xrotation Yrotation
      JOINT Spine2
      {
        OFFSET 0 9.7078 -2.1609
        CHANNELS 3 Zrotation Xrotation Yrotation
        JOINT Neck
        {
          OFFSET 0 21.8761 -0.4549
          CHANNELS 3 Zrotation Xrotation Yrotation
          JOINT Head
          {
            OFFSET 0 12.3537 3.3602
            CHANNELS 3 Zrotation Xrotation Yrotation
            End Site
            {
              OFFSET 0.0001 18.9506 0.5657
            }
          }
        }
        JOINT LeftShoulder
        {
          OFFSET 2.2086 21.1115 7.2329
          CHANNELS 3 Zrotation Xrotation Yrotation
          JOINT LeftArm
          {
            OFFSET 13.1193 3.0282 -4.8998
            CHANNELS 3 Zrotation Xrotation Yrotation
            JOINT LeftForeArm
            {
              OFFSET 27.4081 -0.0973053 -0.2375
              CHANNELS 3 Zrotation Xrotation Yrotation
              JOINT LeftHand
              {
                OFFSET 22.8641 0.0662994 -0.1369
                CHANNELS 3 Zrotation Xrotation Yrotation
                JOINT LeftHandIndex1
                {
                  OFFSET 8.8614 0.775009 2.4612
                  CHANNELS 3 Zrotation Xrotation Yrotation
                  JOINT LeftHandIndex2
                  {
                    OFFSET 3.3146 -0.808304 0.5841
                    CHANNELS 3 Zrotation Xrotation Yrotation
                    JOINT LeftHandIndex3
                    {
                      OFFSET 2.2628 -0.552002 0.3989
                      CHANNELS 3 Zrotation Xrotation Yrotation
                      End Site
                      {
                        OFFSET 1.6102 -0.4807 0.2612
                      }
                    }
                  }
                }
                JOINT LeftHandMiddle1
                {
                  OFFSET 8.9937 0.895004 0.2143
                  CHANNELS 3 Zrotation Xrotation Yrotation
                  JOINT LeftHandMiddle2
                  {
                    OFFSET 4.0984 0.0113983 -0.0242
                    CHANNELS 3 Zrotation Xrotation Yrotation
                    JOINT LeftHandMiddle3
                    {
                      OFFSET 2.2716 0.00689697 -0.0138001
                      CHANNELS 3 Zrotation Xrotation Yrotation
                      End Site
                      {
                        OFFSET 2.0404 -0.1441 0.0027
                      }
                    }
                  }
                }
                JOINT LeftHandRing1
                {
                  OFFSET 8.5234 0.597198 -2.0164
                  CHANNELS 3 Zrotation Xrotation Yrotation
                  JOINT LeftHandRing2
                  {
                    OFFSET 3.7188 -0.188293 -0.2328
                    CHANNELS 3 Zrotation Xrotation Yrotation
                    JOINT LeftHandRing3
                    {
                      OFFSET 2.1191 -0.106598 -0.1332
                      CHANNELS 3 Zrotation Xrotation Yrotation
                      End Site
                      {
                        OFFSET 1.8737 -0.2304 -0.0886
                      }
                    }
                  }
                }
                JOINT LeftHandPinky1
                {
                  OFFSET 7.9094 -0.601089 -3.4825
                  CHANNELS 3 Zrotation Xrotation Yrotation
                  JOINT LeftHandPinky2
                  {
                    OFFSET 2.2874 -0.477005 -0.6314
                    CHANNELS 3 Zrotation Xrotation Yrotation
                    JOINT LeftHandPinky3
                    {
                      OFFSET 1.6774 -0.349396 -0.4633
                      CHANNELS 3 Zrotation Xrotation Yrotation
                      End Site
                      {
                        OFFSET 1.4888 -0.4091 -0.3416
                      }
                    }
                  }
                }
                JOINT LeftHandThumb1
                {
                  OFFSET 1.833 -1.3875 1.3896
                  CHANNELS 3 Zrotation Xrotation Yrotation
                  JOINT LeftHandThumb2
                  {
                    OFFSET 3.4129 -1.121 2.5732
                    CHANNELS 3 Zrotation Xrotation Yrotation
                    JOINT LeftHandThumb3
                    {
                      OFFSET 2.2474 -0.804199 1.6192
                      CHANNELS 3 Zrotation Xrotation Yrotation
                      End Site
                      {
                        OFFSET 1.6527 -0.5689 1.1317
                      }
                    }
                  }
                }
              }
            }
          }
        }
        JOINT RightShoulder
        {
          OFFSET -2.2086 21.1115 7.2329
          CHANNELS 3 Zrotation Xrotation Yrotation
          JOINT RightArm
          {
            OFFSET -13.1216 3.0287 -4.9007
            CHANNELS 3 Zrotation Xrotation Yrotation
            JOINT RightForeArm
            {
              OFFSET -27.4081 -0.0973053 -0.2375
              CHANNELS 3 Zrotation Xrotation Yrotation
              JOINT RightHand
              {
                OFFSET -22.8641 0.0664063 -0.1369
                CHANNELS 3 Zrotation Xrotation Yrotation
                JOINT RightHandIndex1
                {
                  OFFSET -8.8614 0.774994 2.4612
                  CHANNELS 3 Zrotation Xrotation Yrotation
                  JOINT RightHandIndex2
                  {
                    OFFSET -3.3146 -0.808304 0.5841
                    CHANNELS 3 Zrotation Xrotation Yrotation
                    JOINT RightHandIndex3
                    {
                      OFFSET -2.2628 -0.552002 0.3989
                      CHANNELS 3 Zrotation Xrotation Yrotation
                      End Site
                      {
                        OFFSET -1.6102 -0.4807 0.2612
                      }
                    }
                  }
                }
                JOINT RightHandMiddle1
                {
                  OFFSET -8.9937 0.894989 0.2143
                  CHANNELS 3 Zrotation Xrotation Yrotation
                  JOINT RightHandMiddle2
                  {
                    OFFSET -4.0984 0.0113983 -0.0242
                    CHANNELS 3 Zrotation Xrotation Yrotation
                    JOINT RightHandMiddle3
                    {
                      OFFSET -2.2716 0.00691223 -0.0138001
                      CHANNELS 3 Zrotation Xrotation Yrotation
                      End Site
                      {
                        OFFSET -2.0404 -0.1441 0.0027
                      }
                    }
                  }
                }
                JOINT RightHandRing1
                {
                  OFFSET -8.5234 0.597198 -2.0164
                  CHANNELS 3 Zrotation Xrotation Yrotation
                  JOINT RightHandRing2
                  {
                    OFFSET -3.7188 -0.188309 -0.2328
                    CHANNELS 3 Zrotation Xrotation Yrotation
                    JOINT RightHandRing3
                    {
                      OFFSET -2.1191 -0.106598 -0.1332
                      CHANNELS 3 Zrotation Xrotation Yrotation
                      End Site
                      {
                        OFFSET -1.8737 -0.2304 -0.0886
                      }
                    }
                  }
                }
                JOINT RightHandPinky1
                {
                  OFFSET -7.9094 -0.601105 -3.4825
                  CHANNELS 3 Zrotation Xrotation Yrotation
                  JOINT RightHandPinky2
                  {
                    OFFSET -2.2874 -0.477005 -0.6314
                    CHANNELS 3 Zrotation Xrotation Yrotation
                    JOINT RightHandPinky3
                    {
                      OFFSET -1.6774 -0.349396 -0.4633
                      CHANNELS 3 Zrotation Xrotation Yrotation
                      End Site
                      {
                        OFFSET -1.4888 -0.4091 -0.3416
                      }
                    }
                  }
                }
                JOINT RightHandThumb1
                {
                  OFFSET -1.833 -1.38751 1.3896
                  CHANNELS 3 Zrotation Xrotation Yrotation
                  JOINT RightHandThumb2
                  {
                    OFFSET -3.41299 -1.12099 2.5732
                    CHANNELS 3 Zrotation Xrotation Yrotation
                    JOINT RightHandThumb3
                    {
                      OFFSET -2.24741 -0.804108 1.6192
                      CHANNELS 3 Zrotation Xrotation Yrotation
                      End Site
                      {
                        OFFSET -1.6527 -0.5689 1.1317
                      }
                    }
                  }
                }
              }
            }
          }
        }
      }
    }
  }
  JOINT RightUpLeg
  {
    OFFSET -9.1966 3.8861 -0.7581
    CHANNELS 3 Zrotation Xrotation Yrotation
    JOINT RightLeg
    {
      OFFSET -0.7359 -41.0265 0
      CHANNELS 3 Zrotation Xrotation Yrotation
      JOINT RightFoot
      {
        OFFSET 0 -40.2855 0
        CHANNELS 3 Zrotation Xrotation Yrotation
        JOINT RightToeBase
        {
          OFFSET 0 -5.6122 11.7359
          CHANNELS 3 Zrotation Xrotation Yrotation
          End Site
          {
            OFFSET 0 0 7.8731
          }
        }
      }
    }
  }
  JOINT LeftUpLeg
  {
    OFFSET 9.1965 3.8864 -0.7581
    CHANNELS 3 Zrotation Xrotation Yrotation
    JOINT LeftLeg
    {
      OFFSET 0.7359 -41.0268 0
      CHANNELS 3 Zrotation Xrotation Yrotation
      JOINT LeftFoot
      {
        OFFSET 0 -40.2855 0
        CHANNELS 3 Zrotation Xrotation Yrotation
        JOINT LeftToeBase
        {
          OFFSET 0 -5.6122 11.7359
          CHANNELS 3 Zrotation Xrotation Yrotation
          End Site
          {
            OFFSET 0 0 7.8731
          }
        }
      }
    }
  }
}
MOTION
Frames:	4
Frame Time:	0.0333333
-43.7263 41.1108 39.9232 -99.585 -89.9887 -99.5739 -0.220006 3.25135 -0.404066 -0.418009 6.50419 -0.797534 -0.418008 6.50418 -0.797533 -2.62718e-005 -19.7159 -1.0457e-005 3.07873e-007 -0.904322 4.29781e-007 7.10265 -34.6267 -14.077 -90.5698 -18.8919 -69.8594 -12.6567 -4.55355 -112.616 -28.4588 -15.7161 -16.3761 4.41409e-007 5.17969e-007 5.08955e-007 4.41409e-007 5.17969e-007 5.08955e-007 4.41409e-007 5.17969e-007 5.08955e-007 4.41409e-007 5.17969e-007 5.08955e-007 -0.0145886 -8.81554e-005 -2.69121e-006 4.4142e-007 5.17905e-007 5.0902e-007 4.41409e-007 5.17969e-007 5.08955e-007 -0.0187427 -0.0011822 5.73736e-005 4.41428e-007 5.17887e-007 5.09035e-007 4.41409e-007 5.17969e-007 5.08955e-007 -0.0123353 -0.00327542 0.000679025 4.41435e-007 5.17914e-007 5.08997e-007 4.41409e-007 5.17969e-007 5.08955e-007 4.41409e-007 5.17969e-007 5.08955e-007 4.41409e-007 5.17969e-007 5.08955e-007 -7.45224 -34.7498 13.9071 88.5791 -24.8667 62.947 12.8237 -4.85692 112.514 19.6762 -17.7277 13.7737 1.27222e-014 4.77083e-015 -0 6.36111e-015 4.77083e-015 6.36111e-015 3.18055e-015 0 3.18055e-015 1.27222e-014 4.77083e-015 -0 0.0149515 -9.09821e-005 3.09693e-006 5.29669e-031 -4.77083e-015 6.36111e-015 1.27222e-014 4.77083e-015 -0 0.0189545 -0.00119262 -7.01111e-005 1.76556e-031 -3.18055e-015 3.18055e-015 1.27222e-014 4.77083e-015 -0 0.012192 -0.00323024 -0.00067411 6.36111e-015 -4.77083e-015 -6.36111e-015 1.27222e-014 4.77083e-015 -0 6.36111e-015 4.77083e-015 6.36111e-015 3.18055e-015 0 3.18055e-015 -6.92623 -32.4605 -2.83646 -73.555 85.9086 71.2656 9.69687 34.4803 -12.8437 -8.58234e-007 -3.20372e-010 1.67654e-006 2.37051 -32.0489 -3.54085 72.1542 85.9266 -69.9015 -15.8512 32.5883 17.4925 1.29167e-007 1.42283e-008 -2.02385e-006 
-43.7263 41.071 39.9286 -99.585 -89.9887 -99.5739 -0.22052 3.2847 -0.403681 -0.418845 6.57081 -0.796643 -0.418844 6.57084 -0.796643 2.36388e-005 -19.5166 3.01326e-006 4.65692e-008 -1.49956 2.88656e-007 7.31641 -34.7554 -13.8698 -90.4783 -19.0045 -69.6371 -12.6567 -4.55357 -112.616 -28.3102 -15.8209 -16.2511 -4.43422e-007 -5.16413e-007 -5.08472e-007 -3.18055e-015 0 6.36111e-015 -4.43422e-007 -5.16413e-007 -5.08472e-007 -4.43422e-007 -5.16413e-007 -5.08472e-007 -0.0146131 -9.2412e-005 1.3454e-006 -4.43433e-007 -5.16349e-007 -5.08537e-007 -4.43422e-007 -5.16413e-007 -5.08472e-007 -0.0187492 -0.00117235 6.21814e-005 -2.91327e-007 -6.77089e-007 4.19136e-007 -4.43422e-007 -5.16413e-007 -5.08472e-007 -0.012284 -0.00325465 0.000673243 -4.43448e-007 -5.16359e-007 -5.08514e-007 -4.43422e-007 -5.16413e-007 -5.08472e-007 -3.18055e-015 0 6.36111e-015 -4.43422e-007 -5.16413e-007 -5.08472e-007 -7.65503 -34.8733 13.7047 88.3303 -24.7667 62.766 12.8237 -4.85691 112.514 19.5274 -17.8243 13.6412 4.53646e-007 -7.35175e-007 9.0235e-008 9.11255e-007 -9.87824e-007 9.94302e-007 1.36887e-006 -1.24047e-006 1.89837e-006 4.53646e-007 -7.35175e-007 9.0235e-008 0.0149556 -8.77998e-005 5.12528e-006 9.11302e-007 -9.87695e-007 9.9443e-007 4.53646e-007 -7.35175e-007 9.0235e-008 0.0190352 -0.00119611 -6.31141e-005 9.11324e-007 -9.87662e-007 9.94457e-007 4.53646e-007 -7.35175e-007 9.0235e-008 0.0123078 -0.00325574 -0.000676542 9.11327e-007 -9.87722e-007 9.9438e-007 4.53646e-007 -7.35175e-007 9.0235e-008 9.11255e-007 -9.87824e-007 9.94302e-007 1.36887e-006 -1.24047e-006 1.89837e-006 -7.15918 -32.5215 -3.15506 -73.5014 85.9075 71.2097 9.34846 34.4332 -12.5641 1.72409e-008 -8.62149e-008 1.70015e-006 2.75826 -32.1516 -2.99885 72.1211 85.9259 -69.8626 -15.2818 32.622 17.0478 1.35973e-007 8.02618e-008 -2.01515e-006 
-43.7263 41.0311 39.934 -99.585 -89.9887 -99.5739 -0.221033 3.31799 -0.403293 -0.419679 6.63745 -0.795743 -0.419679 6.63742 -0.795744 -3.04416e-005 -19.3157 -6.56056e-006 2.03343e-008 -2.09518 -3.08245e-007 7.53107 -34.8833 -13.6616 -90.3862 -19.1169 -69.4144 -12.6567 -4.55357 -112.616 -28.1613 -15.9254 -16.1257 -3.18055e-015 7.95139e-015 -0 4.45422e-007 5.14851e-007 5.07986e-007 4.45422e-007 5.14851e-007 5.07986e-007 -3.18055e-015 7.95139e-015 -0 -0.0145897 -8.95733e-005 2.10705e-006 4.45433e-007 5.14786e-007 5.08051e-007 -3.18055e-015 7.95139e-015 -0 -0.0187451 -0.00117268 6.43943e-005 4.45442e-007 5.14768e-007 5.08065e-007 -3.18055e-015 7.95139e-015 -0 -0.0122707 -0.00324934 0.000678917 4.45449e-007 5.14796e-007 5.08028e-007 -3.18055e-015 7.95139e-015 -0 4.45422e-007 5.14851e-007 5.07986e-007 4.45422e-007 5.14851e-007 5.07986e-007 -7.85869 -34.9961 13.5015 88.082 -24.6661 62.5857 12.8237 -4.85692 112.514 19.3783 -17.9206 13.5082 9.54166e-015 1.59028e-015 -0 -0 -4.77083e-015 -0 2.64834e-031 -4.77083e-015 3.18055e-015 9.54166e-015 1.59028e-015 -0 0.0149849 -8.69206e-005 6.81306e-006 -6.36111e-015 4.77083e-015 3.18055e-015 9.54166e-015 1.59028e-015 -0 0.0190127 -0.00119718 -6.31724e-005 -7.94503e-031 4.77083e-015 9.54166e-015 9.54166e-015 1.59028e-015 -0 0.0122959 -0.00325378 -0.00067499 3.18055e-015 -1.59028e-015 -0 9.54166e-015 1.59028e-015 -0 -0 -4.77083e-015 -0 2.64834e-031 -4.77083e-015 3.18055e-015 -7.39271 -32.5814 -3.47422 -73.4471 85.9063 71.1532 9.00053 34.3847 -12.285 -2.33445e-008 1.57939e-007 -1.16444e-008 3.1474 -32.2543 -2.45544 72.128 85.9261 -69.8636 -14.7117 32.6521 16.6025 7.84273e-009 5.26402e-008 3.85519e-009 
-43.7263 40.9913 39.9395 -99.585 -89.9887 -99.5739 -0.221546 3.3513 -0.402905 -0.420516 6.7041 -0.794846 -0.420516 6.70407 -0.794846 -4.45773e-005 -19.1154 -8.17478e-006 3.78303e-007 -2.69118 8.93237e-008 7.74668 -35.0107 -13.4525 -90.2937 -19.2289 -69.1913 -12.6567 -4.55356 -112.616 -28.0121 -16.0295 -15.9999 8.94819e-007 1.02656e-006 1.01499e-006 1.34223e-006 1.53984e-006 1.52249e-006 3.18055e-015 6.36111e-015 9.54166e-015 8.94819e-007 1.02656e-006 1.01499e-006 -0.0145836 -8.38792e-005 -1.95461e-006 -1.23589e-030 -1.11319e-014 -6.36111e-015 8.94819e-007 1.02656e-006 1.01499e-006 -0.0187712 -0.00117974 5.60071e-005 6.36111e-015 -1.27222e-014 -6.36111e-015 8.94819e-007 1.02656e-006 1.01499e-006 -0.0122563 -0.00324207 0.000668478 6.36111e-015 -6.36111e-015 6.36111e-015 8.94819e-007 1.02656e-006 1.01499e-006 1.34223e-006 1.53984e-006 1.52249e-006 3.18055e-015 6.36111e-015 9.54166e-015 -8.06319 -35.1184 13.2974 87.8343 -24.5647 62.4059 12.8237 -4.85692 112.514 19.2289 -18.0165 13.375 -9.20862e-007 9.81105e-007 -9.91728e-007 -9.20862e-007 9.81105e-007 -9.91728e-007 -9.20862e-007 9.81105e-007 -9.91728e-007 -9.20862e-007 9.81105e-007 -9.91728e-007 0.0149472 -9.48832e-005 1.31073e-006 -9.20908e-007 9.80976e-007 -9.91856e-007 -9.20862e-007 9.81105e-007 -9.91728e-007 0.0190372 -0.00119158 -5.03487e-005 -9.2093e-007 9.80944e-007 -9.91882e-007 -9.20862e-007 9.81105e-007 -9.91728e-007 0.0123623 -0.00327657 -0.000683361 -9.20934e-007 9.81003e-007 -9.91806e-007 -9.20862e-007 9.81105e-007 -9.91728e-007 -9.20862e-007 9.81105e-007 -9.91728e-007 -9.20862e-007 9.81105e-007 -9.91728e-007 -7.62691 -32.6398 -3.79399 -73.3888 85.9051 71.0928 8.65307 34.3347 -12.0064 -2.05678e-009 7.14029e-008 1.68863e-006 3.53904 -32.3469 -1.90986 72.0402 85.924 -69.7703 -14.141 32.6785 16.1566 8.61851e-007 6.35722e-009 6.64361e-009 
